<?xml version="1.0" standalone="no"?>
<!DOCTYPE svg PUBLIC "-//W3C//DTD SVG 20010904//EN"
 "http://www.w3.org/TR/2001/REC-SVG-20010904/DTD/svg10.dtd">
<svg version="1.0" xmlns="http://www.w3.org/2000/svg"
 width="429.000000pt" height="427.000000pt" viewBox="0 0 429.000000 427.000000"
 preserveAspectRatio="xMidYMid meet">

<g transform="translate(0.000000,427.000000) scale(0.100000,-0.100000)"
fill="#478CFF" stroke="none">
<path d="M815 4240 c-215 -38 -369 -117 -507 -257 -152 -154 -230 -310 -263
-532 -23 -151 -23 -2491 0 -2642 35 -229 117 -391 276 -545 146 -140 296 -213
519 -249 143 -23 2497 -23 2640 0 223 36 373 109 519 249 159 154 241 316 276
545 23 151 23 2491 0 2642 -35 229 -117 391 -276 545 -147 142 -294 212 -519
249 -82 13 -263 15 -1330 14 -1144 -1 -1242 -2 -1335 -19z m1100 -1340 l0
-145 -267 -3 -268 -2 0 -765 0 -765 -160 0 -160 0 0 765 0 765 -264 0 -264 0
-4 143 c-3 78 -3 145 -1 150 2 4 316 6 696 5 l692 -3 0 -145z m572 133 c3 -10
22 -54 41 -98 19 -44 49 -114 67 -155 38 -89 230 -528 287 -655 22 -49 43 -94
47 -98 4 -4 107 223 228 505 l219 513 205 0 204 0 3 -912 2 -913 -160 0 -160
0 -2 642 -3 641 -197 -444 -197 -444 -139 -3 c-104 -2 -142 1 -149 10 -5 7
-95 205 -199 439 l-189 426 -5 -631 -5 -631 -152 -3 -153 -3 0 916 0 915 200
0 c182 0 201 -2 207 -17z"/>
</g>
</svg>
