<svg xmlns="http://www.w3.org/2000/svg" xmlns:xlink="http://www.w3.org/1999/xlink" viewBox="0,0,256,256" width="50px" height="50px"><g fill="#ffffff" fill-rule="nonzero" stroke="none" stroke-width="1" stroke-linecap="butt" stroke-linejoin="miter" stroke-miterlimit="10" stroke-dasharray="" stroke-dashoffset="0" font-family="none" font-weight="none" font-size="none" text-anchor="none" style="mix-blend-mode: normal"><g transform="scale(5.12,5.12)"><path d="M9,4c-2.74952,0 -5,2.25048 -5,5v32c0,2.74952 2.25048,5 5,5h32c2.74952,0 5,-2.25048 5,-5v-32c0,-2.74952 -2.25048,-5 -5,-5zM9,6h6.57617c-3.45813,3.59811 -5.57617,8.32363 -5.57617,13.5c0,5.36135 2.26815,10.2486 5.94922,13.88867c-0.13381,-0.12748 0.03942,0.09421 0.05664,0.48633c0.01778,0.40477 -0.04317,0.96092 -0.20703,1.51172c-0.32772,1.1016 -1.01318,2.11702 -2.11523,2.48438c-0.43042,0.14344 -0.71036,0.55864 -0.68195,1.01144c0.02841,0.4528 0.35807,0.82975 0.80304,0.91825c2.7597,0.55194 4.71177,-0.27897 6.15039,-0.93945c1.43862,-0.66048 2.21596,-1.10495 3.66992,-0.51758c0.0039,0.00133 0.0078,0.00263 0.01172,0.00391c2.72232,1.0641 5.71952,1.65234 8.86328,1.65234c4.19732,0 8.13117,-1.04883 11.5,-2.87695v3.87695c0,1.66848 -1.33152,3 -3,3h-32c-1.66848,0 -3,-1.33152 -3,-3v-32c0,-1.66848 1.33152,-3 3,-3zM18.49609,6h22.50391c1.66848,0 3,1.33152 3,3v25.80469c-3.27311,2.00803 -7.22536,3.19531 -11.5,3.19531c-2.88985,0 -5.63635,-0.54059 -8.125,-1.51172c-2.11303,-0.85363 -3.83428,-0.09708 -5.25391,0.55469c-0.76884,0.35298 -1.52739,0.64642 -2.38477,0.80859c0.42417,-0.6048 0.78701,-1.25079 0.97852,-1.89453c0.22627,-0.76057 0.31825,-1.50535 0.28906,-2.16992c-0.02909,-0.66227 -0.08696,-1.26881 -0.64648,-1.81836l-0.00195,-0.00195c-3.33854,-3.30144 -5.35547,-7.66805 -5.35547,-12.4668c0,-5.32259 2.48618,-10.11237 6.49609,-13.5zM32.98438,14.98633c-0.55152,0.00862 -0.99193,0.46214 -0.98437,1.01367v9c-0.0051,0.36064 0.18438,0.69608 0.49587,0.87789c0.3115,0.18181 0.69676,0.18181 1.00825,0c0.3115,-0.18181 0.50097,-0.51725 0.49587,-0.87789v-9c0.0037,-0.2703 -0.10218,-0.53059 -0.29351,-0.72155c-0.19133,-0.19097 -0.45182,-0.29634 -0.72212,-0.29212zM18,16c-0.36064,-0.0051 -0.69608,0.18438 -0.87789,0.49587c-0.18181,0.3115 -0.18181,0.69676 0,1.00825c0.18181,0.3115 0.51725,0.50097 0.87789,0.49587h3.19727l-4.04492,6.4707c-0.19219,0.30819 -0.20218,0.69636 -0.0261,1.01403c0.17608,0.31767 0.51055,0.51491 0.87376,0.51526h5c0.36064,0.0051 0.69608,-0.18438 0.87789,-0.49587c0.18181,-0.3115 0.18181,-0.69676 0,-1.00825c-0.18181,-0.3115 -0.51725,-0.50097 -0.87789,-0.49587h-3.19727l4.04492,-6.4707c0.19219,-0.30819 0.20218,-0.69636 0.0261,-1.01403c-0.17608,-0.31767 -0.51055,-0.51491 -0.87376,-0.51526zM29.98438,18.98633c-0.3331,0.00588 -0.64141,0.17724 -0.82227,0.45703c-0.49759,-0.27324 -1.05865,-0.44336 -1.66211,-0.44336c-1.92115,0 -3.5,1.57885 -3.5,3.5c0,1.92115 1.57885,3.5 3.5,3.5c0.60285,0 1.16293,-0.17064 1.66016,-0.44336c0.24207,0.37439 0.70272,0.54333 1.12945,0.41422c0.42673,-0.12911 0.71646,-0.52508 0.71039,-0.97087v-2.5v-2.5c0.0037,-0.2703 -0.10218,-0.53059 -0.29351,-0.72155c-0.19133,-0.19097 -0.45182,-0.29634 -0.72212,-0.29212zM38.5,19c-1.92115,0 -3.5,1.57885 -3.5,3.5c0,1.92115 1.57885,3.5 3.5,3.5c1.92115,0 3.5,-1.57885 3.5,-3.5c0,-1.92115 -1.57885,-3.5 -3.5,-3.5zM27.5,21c0.84027,0 1.5,0.65973 1.5,1.5c0,0.84027 -0.65973,1.5 -1.5,1.5c-0.84027,0 -1.5,-0.65973 -1.5,-1.5c0,-0.84027 0.65973,-1.5 1.5,-1.5zM38.5,21c0.84027,0 1.5,0.65973 1.5,1.5c0,0.84027 -0.65973,1.5 -1.5,1.5c-0.84027,0 -1.5,-0.65973 -1.5,-1.5c0,-0.84027 0.65973,-1.5 1.5,-1.5z"></path></g></g></svg>